<svg width="49" height="45" viewBox="0 0 49 45" fill="none" xmlns="http://www.w3.org/2000/svg">
<g clip-path="url(#clip0_877_994)">
<path d="M24.5 42.9679L0.538995 36.8414C0.220939 36.7591 0 36.476 0 36.147V11.9799C0 11.5129 0.441879 11.1693 0.895897 11.2854L24.5 17.32V42.9679Z" fill="#FF7532"/>
<path d="M11.499 17.2202V44.7748C11.499 44.9635 11.72 45.07 11.8681 44.949L13.8832 43.3206C13.9779 43.2432 14.1187 43.2577 14.1989 43.3497L15.4055 44.7748C15.5415 44.9345 15.8037 44.8401 15.8037 44.6296V20.0851C15.8037 19.8963 15.7284 19.7149 15.5949 19.5794L12.73 16.7121C12.2784 16.2596 11.5039 16.579 11.5039 17.2178L11.499 17.2202Z" fill="#484848"/>
<path d="M2.21191 29.7301V5.73719C2.21191 5.18552 2.81161 4.84193 3.2899 5.11777L24.5001 17.3223V42.9702L2.57124 30.3519C2.34788 30.2237 2.21191 29.9866 2.21191 29.7325V29.7301Z" fill="#E9692C"/>
<path d="M6.36621 24.3248V0.716603C6.36621 0.075405 7.14557 -0.241564 7.59716 0.213323L24.5002 17.3176V42.9655L6.57258 24.8281C6.43905 24.695 6.36621 24.5135 6.36621 24.3248Z" fill="#D86128"/>
<path d="M24.5 42.9679L48.461 36.8414C48.7791 36.7591 49 36.476 49 36.147V11.9799C49 11.5129 48.5581 11.1693 48.1041 11.2854L24.5 17.32V42.9679Z" fill="#BF5523"/>
<path d="M24.5 42.9678L46.4288 30.3495C46.6522 30.2213 46.7882 29.9842 46.7882 29.7301V5.73719C46.7882 5.18552 46.1885 4.84193 45.7102 5.11777L24.5 17.3223V42.9702V42.9678Z" fill="#D86128"/>
<path d="M42.634 24.3248V0.716603C42.634 0.075405 41.8547 -0.241564 41.4031 0.213323L24.5 17.3176V42.9655L42.4277 24.8256C42.5612 24.6926 42.634 24.5111 42.634 24.3224V24.3248Z" fill="#FA773A"/>
</g>
<defs>
<clipPath id="clip0_877_994">
<rect width="49" height="45" fill="white"/>
</clipPath>
</defs>
</svg>
